<svg width="10" height="15" viewBox="0 0 10 15" fill="none" xmlns="http://www.w3.org/2000/svg">
<g clip-path="url(#clip0_1_1327)">
<path d="M1.2824 1.91564C1.08527 1.71564 0.97575 1.45248 0.986702 1.1788C0.986702 0.905111 1.09622 0.652478 1.3043 0.452479C1.50144 0.263005 1.77523 0.147215 2.05997 0.147215C2.34472 0.147215 2.61851 0.241953 2.8266 0.431426L9.0253 6.38932C9.12386 6.48406 9.20052 6.59985 9.25528 6.72616C9.31004 6.85248 9.3429 6.98932 9.3429 7.12616C9.3429 7.26301 9.31004 7.39985 9.25528 7.53669C9.20052 7.66301 9.12386 7.7788 9.02529 7.87353L2.8266 13.8314C2.72803 13.9262 2.60756 14.0104 2.47614 14.063C2.33377 14.1156 2.19139 14.1472 2.04902 14.1472C1.90665 14.1472 1.75332 14.1262 1.6219 14.0735C1.49048 14.0209 1.37001 13.9367 1.2605 13.842C1.16193 13.7472 1.08527 13.6209 1.03051 13.4946C0.964797 13.3683 0.942894 13.2314 0.942894 13.0841C0.942894 12.9472 0.975749 12.8104 1.03051 12.6841C1.08527 12.5577 1.17288 12.442 1.2824 12.3367L6.70352 7.12616L5.67406 6.14722L1.2824 1.91564Z" fill="#181725"/>
</g>
<defs>
<clipPath id="clip0_1_1327">
<rect width="8.4" height="14" fill="white" transform="translate(9.3429 14.1472) rotate(-180)"/>
</clipPath>
</defs>
</svg>
