<svg width="42" height="39" viewBox="0 0 42 39" fill="none" xmlns="http://www.w3.org/2000/svg">
<path d="M25.324 14.2375C26.1119 14.2375 26.8921 14.0823 27.6201 13.7808C28.348 13.4793 29.0095 13.0373 29.5666 12.4802C30.1238 11.923 30.5657 11.2616 30.8673 10.5336C31.1688 9.80569 31.324 9.02547 31.324 8.23754C31.324 7.44961 31.1688 6.6694 30.8673 5.94144C30.5657 5.21349 30.1238 4.55205 29.5666 3.9949C29.0095 3.43775 28.348 2.99579 27.6201 2.69427C26.8921 2.39274 26.1119 2.23754 25.324 2.23754C23.7327 2.23754 22.2066 2.86968 21.0813 3.9949C19.9561 5.12012 19.324 6.64624 19.324 8.23754C19.324 9.82884 19.9561 11.355 21.0813 12.4802C22.2066 13.6054 23.7327 14.2375 25.324 14.2375ZM31.644 13.1435L35.224 16.7235C35.3194 16.8159 35.3955 16.9263 35.4479 17.0483C35.5002 17.1703 35.5277 17.3016 35.5287 17.4344C35.5298 17.5671 35.5044 17.6988 35.454 17.8217C35.4037 17.9445 35.3293 18.0561 35.2354 18.1499C35.1414 18.2438 35.0297 18.3179 34.9068 18.3681C34.7838 18.4183 34.6521 18.4435 34.5194 18.4423C34.3866 18.441 34.2554 18.4134 34.1334 18.3609C34.0115 18.3084 33.9012 18.2321 33.809 18.1365L30.229 14.5565C28.6215 15.8044 26.5988 16.3927 24.5727 16.2017C22.5467 16.0108 20.6696 15.0549 19.3235 13.5286C17.9775 12.0024 17.2637 10.0205 17.3274 7.98647C17.3912 5.95244 18.2277 4.01917 19.6666 2.58019C21.1056 1.14121 23.0389 0.30471 25.0729 0.240969C27.1069 0.177228 29.0888 0.891039 30.6151 2.23709C32.1413 3.58315 33.0972 5.46026 33.2882 7.4863C33.4792 9.51234 32.8908 11.535 31.643 13.1425L31.644 13.1435Z" fill="#181725"/>
<rect x="7.17944" y="0.23704" width="8.85499" height="2.39923" rx="1.19961" fill="#181725"/>
<rect x="7.17944" y="7.67523" width="6.46414" height="2.39923" rx="1.19961" fill="#181725"/>
<rect x="7.17944" y="15.1138" width="8.85499" height="2.39923" rx="1.19961" fill="#181725"/>
<path d="M3.10721 31.0985V33.3665H6.82721V34.6865H1.72721V26.2865H6.76721V27.6065H3.10721V29.7905H6.46721V31.0985H3.10721ZM11.1265 31.6145L13.3705 34.6865H11.8705L10.3825 32.6345L8.88249 34.6865H7.37049L9.62649 31.6025L7.49049 28.6865H8.99049L10.3705 30.5825L11.7505 28.6865H13.2625L11.1265 31.6145ZM17.6369 28.5305C18.4529 28.5305 19.1569 28.8385 19.7489 29.4545C20.3329 30.0625 20.6249 30.8065 20.6249 31.6865C20.6249 32.5745 20.3329 33.3225 19.7489 33.9305C19.1649 34.5385 18.4609 34.8425 17.6369 34.8425C16.7329 34.8425 16.0329 34.5065 15.5369 33.8345V37.0865H14.2409V28.6865H15.5369V29.5505C16.0249 28.8705 16.7249 28.5305 17.6369 28.5305ZM16.0769 33.0665C16.4369 33.4265 16.8889 33.6065 17.4329 33.6065C17.9769 33.6065 18.4289 33.4265 18.7889 33.0665C19.1489 32.6985 19.3289 32.2385 19.3289 31.6865C19.3289 31.1345 19.1489 30.6785 18.7889 30.3185C18.4289 29.9505 17.9769 29.7665 17.4329 29.7665C16.8889 29.7665 16.4369 29.9505 16.0769 30.3185C15.7169 30.6785 15.5369 31.1345 15.5369 31.6865C15.5369 32.2305 15.7169 32.6905 16.0769 33.0665ZM23.0955 34.6865H21.7995V25.9265H23.0955V34.6865ZM29.6762 33.9305C29.0682 34.5385 28.3202 34.8425 27.4322 34.8425C26.5442 34.8425 25.7962 34.5385 25.1882 33.9305C24.5722 33.3145 24.2642 32.5665 24.2642 31.6865C24.2642 30.8065 24.5722 30.0585 25.1882 29.4425C25.7962 28.8345 26.5442 28.5305 27.4322 28.5305C28.3202 28.5305 29.0682 28.8345 29.6762 29.4425C30.2922 30.0585 30.6002 30.8065 30.6002 31.6865C30.6002 32.5665 30.2922 33.3145 29.6762 33.9305ZM25.5602 31.6865C25.5602 32.2305 25.7402 32.6825 26.1002 33.0425C26.4602 33.4025 26.9042 33.5825 27.4322 33.5825C27.9602 33.5825 28.4042 33.4025 28.7642 33.0425C29.1242 32.6825 29.3042 32.2305 29.3042 31.6865C29.3042 31.1425 29.1242 30.6905 28.7642 30.3305C28.4042 29.9705 27.9602 29.7905 27.4322 29.7905C26.9042 29.7905 26.4602 29.9705 26.1002 30.3305C25.7402 30.6905 25.5602 31.1425 25.5602 31.6865ZM33.0681 28.6865V29.6945C33.3961 28.9505 34.0121 28.5785 34.9161 28.5785V29.9825C34.4281 29.9505 33.9961 30.0705 33.6201 30.3425C33.2521 30.6065 33.0681 31.0465 33.0681 31.6625V34.6865H31.7721V28.6865H33.0681ZM41.3884 32.2385H36.6124C36.7084 32.6865 36.9244 33.0345 37.2604 33.2825C37.6044 33.5305 38.0284 33.6545 38.5324 33.6545C39.2124 33.6545 39.7284 33.4065 40.0804 32.9105L41.1484 33.5345C40.5644 34.4065 39.6884 34.8425 38.5204 34.8425C37.5524 34.8425 36.7644 34.5465 36.1564 33.9545C35.5564 33.3545 35.2564 32.5985 35.2564 31.6865C35.2564 30.7985 35.5524 30.0505 36.1444 29.4425C36.7284 28.8345 37.4884 28.5305 38.4244 28.5305C39.2964 28.5305 40.0164 28.8385 40.5844 29.4545C41.1524 30.0705 41.4364 30.8185 41.4364 31.6985C41.4364 31.8585 41.4204 32.0385 41.3884 32.2385ZM36.6004 31.1825H40.1284C40.0404 30.7105 39.8404 30.3465 39.5284 30.0905C39.2244 29.8345 38.8524 29.7065 38.4124 29.7065C37.9324 29.7065 37.5324 29.8385 37.2124 30.1025C36.8924 30.3665 36.6884 30.7265 36.6004 31.1825Z" fill="#181725"/>
</svg>
