<svg width="30" height="43" viewBox="0 0 30 43" fill="none" xmlns="http://www.w3.org/2000/svg">
<path d="M11.759 9.75407C12.289 10.2291 12.991 10.5181 13.759 10.5181H15.759C16.4972 10.5191 17.2096 10.2469 17.759 9.75407H11.759ZM11.759 9.75407C11.2096 10.2469 10.4972 10.5191 9.75904 10.5181L11.759 9.75407ZM10.809 4.51807V4.46807H10.759H7.75904C7.48056 4.46807 7.21349 4.57869 7.01657 4.7756C6.81966 4.97252 6.70904 5.23959 6.70904 5.51807V7.51807C6.70904 7.79654 6.81966 8.06362 7.01657 8.26053C7.21349 8.45744 7.48056 8.56807 7.75904 8.56807H9.75904C10.0375 8.56807 10.3046 8.45744 10.5015 8.26053C10.6984 8.06362 10.809 7.79654 10.809 7.51807V4.51807ZM7.76904 10.4681H7.71904V10.5181V20.4831V20.5331H7.76904H9.75904H9.80904V20.4831V15.5181C9.80904 15.0009 10.0145 14.5049 10.3802 14.1392C10.7459 13.7735 11.2419 13.5681 11.759 13.5681H13.759C14.2762 13.5681 14.7722 13.7735 15.1379 14.1392C15.5036 14.5049 15.709 15.0009 15.709 15.5181V20.4831V20.5331H15.759H21.772H21.822V20.4831V10.5181V10.4681H21.772H19.759C19.0038 10.4681 18.3136 10.1839 17.7924 9.71683L17.759 9.68691L17.7256 9.71685C17.1854 10.2015 16.4849 10.4691 15.7591 10.4681H15.759H13.759C13.0038 10.4681 12.3136 10.1839 11.7924 9.71683L11.759 9.68691L11.7256 9.71685C11.1854 10.2015 10.4849 10.4691 9.75911 10.4681H9.75904H7.76904ZM5.7672 9.69519C5.47076 9.42442 5.23273 9.09573 5.06794 8.72925C4.89671 8.34848 4.80845 7.93564 4.80904 7.51814V7.51807V5.51807C4.80904 4.73568 5.11984 3.98533 5.67307 3.4321C6.2263 2.87887 6.97665 2.56807 7.75904 2.56807H21.759C22.5414 2.56807 23.2918 2.87887 23.845 3.4321C24.3982 3.98533 24.709 4.73568 24.709 5.51807V7.51807C24.709 8.3854 24.3354 9.1661 23.7385 9.70598L23.722 9.72087V9.74307V20.4831C23.722 21.0002 23.5166 21.4962 23.1509 21.8619C22.7852 22.2276 22.2892 22.4331 21.772 22.4331H14.132V22.4322L14.1227 22.4339C14.0028 22.4566 13.8811 22.468 13.759 22.4681H11.759C11.637 22.468 11.5152 22.4566 11.3953 22.4339L11.3955 22.4331H11.386H7.77004C7.25286 22.4331 6.75687 22.2276 6.39118 21.8619C6.02548 21.4962 5.82004 21.0002 5.82004 20.4831V9.76307V9.64237L5.7672 9.69519ZM13.809 15.5181V15.4681H13.759H11.759H11.709V15.5181V20.4831V20.5331H11.759H13.759V20.4841H13.809V20.4831V20.4331V15.5181ZM16.809 4.51807V4.46807H16.759H12.759H12.709V4.51807V7.51807C12.709 7.79654 12.8197 8.06362 13.0166 8.26053C13.2135 8.45744 13.4806 8.56807 13.759 8.56807H15.759C16.0375 8.56807 16.3046 8.45744 16.5015 8.26053C16.6984 8.06362 16.809 7.79654 16.809 7.51807V4.51807ZM18.759 4.46807H18.709V4.51807V7.51807C18.709 7.79654 18.8197 8.06362 19.0166 8.26053C19.2135 8.45744 19.4806 8.56807 19.759 8.56807H21.759C22.0375 8.56807 22.3046 8.45744 22.5015 8.26053C22.6984 8.06362 22.809 7.79654 22.809 7.51807V5.51807C22.809 5.23959 22.6984 4.97252 22.5015 4.7756C22.3046 4.57869 22.0375 4.46807 21.759 4.46807H18.759ZM18.759 13.5681H19.759C20.011 13.5681 20.2526 13.6682 20.4308 13.8463C20.6089 14.0245 20.709 14.2661 20.709 14.5181V17.5181C20.709 17.77 20.6089 18.0117 20.4308 18.1898C20.2526 18.368 20.011 18.4681 19.759 18.4681H18.759C18.5071 18.4681 18.2654 18.368 18.0873 18.1898C17.9091 18.0117 17.809 17.77 17.809 17.5181V14.5181C17.809 14.2661 17.9091 14.0245 18.0873 13.8463C18.2654 13.6682 18.5071 13.5681 18.759 13.5681Z" fill="#53B175" stroke="white" stroke-width="0.1"/>
<path d="M4.11574 38.8425C3.30774 38.8425 2.61974 38.6625 2.05174 38.3025C1.49174 37.9345 1.09974 37.4265 0.875736 36.7785L2.06374 36.0825C2.39974 37.0265 3.09574 37.4985 4.15174 37.4985C4.66374 37.4985 5.05174 37.3985 5.31574 37.1985C5.57974 36.9985 5.71174 36.7305 5.71174 36.3945C5.71174 36.0585 5.57174 35.7985 5.29174 35.6145C5.01174 35.4305 4.51574 35.2305 3.80374 35.0145C3.07574 34.7985 2.48774 34.5425 2.03974 34.2465C1.49574 33.8625 1.22374 33.2985 1.22374 32.5545C1.22374 31.8105 1.48774 31.2225 2.01574 30.7905C2.53574 30.3505 3.17174 30.1305 3.92374 30.1305C4.58774 30.1305 5.17174 30.2945 5.67574 30.6225C6.18774 30.9425 6.57974 31.3945 6.85174 31.9785L5.68774 32.6505C5.33574 31.8665 4.74774 31.4745 3.92374 31.4745C3.52374 31.4745 3.20374 31.5705 2.96374 31.7625C2.72374 31.9465 2.60374 32.1985 2.60374 32.5185C2.60374 32.8305 2.72374 33.0785 2.96374 33.2625C3.20374 33.4385 3.64774 33.6265 4.29574 33.8265C4.69574 33.9625 4.92774 34.0425 4.99174 34.0665C5.09574 34.0985 5.30374 34.1785 5.61574 34.3065C5.87174 34.4105 6.07574 34.5225 6.22774 34.6425C6.85174 35.1305 7.13974 35.7065 7.09174 36.3705C7.09174 37.1305 6.81574 37.7345 6.26374 38.1825C5.72774 38.6225 5.01174 38.8425 4.11574 38.8425ZM11.3644 32.5305C12.0604 32.5305 12.6164 32.7545 13.0324 33.2025C13.4564 33.6425 13.6684 34.2425 13.6684 35.0025V38.6865H12.3724V35.1345C12.3724 34.6865 12.2524 34.3425 12.0124 34.1025C11.7724 33.8625 11.4444 33.7425 11.0284 33.7425C10.5564 33.7425 10.1844 33.8905 9.91239 34.1865C9.64039 34.4745 9.50439 34.9025 9.50439 35.4705V38.6865H8.20839V30.2865H9.50439V33.4545C9.90439 32.8385 10.5244 32.5305 11.3644 32.5305ZM20.1399 37.9305C19.5319 38.5385 18.7839 38.8425 17.8959 38.8425C17.0079 38.8425 16.2599 38.5385 15.6519 37.9305C15.0359 37.3145 14.7279 36.5665 14.7279 35.6865C14.7279 34.8065 15.0359 34.0585 15.6519 33.4425C16.2599 32.8345 17.0079 32.5305 17.8959 32.5305C18.7839 32.5305 19.5319 32.8345 20.1399 33.4425C20.7559 34.0585 21.0639 34.8065 21.0639 35.6865C21.0639 36.5665 20.7559 37.3145 20.1399 37.9305ZM16.0239 35.6865C16.0239 36.2305 16.2039 36.6825 16.5639 37.0425C16.9239 37.4025 17.3679 37.5825 17.8959 37.5825C18.4239 37.5825 18.8679 37.4025 19.2279 37.0425C19.5879 36.6825 19.7679 36.2305 19.7679 35.6865C19.7679 35.1425 19.5879 34.6905 19.2279 34.3305C18.8679 33.9705 18.4239 33.7905 17.8959 33.7905C17.3679 33.7905 16.9239 33.9705 16.5639 34.3305C16.2039 34.6905 16.0239 35.1425 16.0239 35.6865ZM25.6317 32.5305C26.4477 32.5305 27.1517 32.8385 27.7437 33.4545C28.3277 34.0625 28.6197 34.8065 28.6197 35.6865C28.6197 36.5745 28.3277 37.3225 27.7437 37.9305C27.1597 38.5385 26.4557 38.8425 25.6317 38.8425C24.7277 38.8425 24.0277 38.5065 23.5317 37.8345V41.0865H22.2357V32.6865H23.5317V33.5505C24.0197 32.8705 24.7197 32.5305 25.6317 32.5305ZM24.0717 37.0665C24.4317 37.4265 24.8837 37.6065 25.4277 37.6065C25.9717 37.6065 26.4237 37.4265 26.7837 37.0665C27.1437 36.6985 27.3237 36.2385 27.3237 35.6865C27.3237 35.1345 27.1437 34.6785 26.7837 34.3185C26.4237 33.9505 25.9717 33.7665 25.4277 33.7665C24.8837 33.7665 24.4317 33.9505 24.0717 34.3185C23.7117 34.6785 23.5317 35.1345 23.5317 35.6865C23.5317 36.2305 23.7117 36.6905 24.0717 37.0665Z" fill="#53B175"/>
</svg>
